<?xml version="1.0" encoding="utf-8"?>
<!-- Generator: Adobe Illustrator 23.0.4, SVG Export Plug-In . SVG Version: 6.00 Build 0)  -->
<svg version="1.1" id="Layer_1" xmlns="http://www.w3.org/2000/svg" xmlns:xlink="http://www.w3.org/1999/xlink" x="0px" y="0px"
	 viewBox="0 0 1276.95 1276.21" style="enable-background:new 0 0 1276.95 1276.21;" xml:space="preserve">
<style type="text/css">
	.st0{fill:#6B6B6B;}
	.st1{fill:#676C72;}
	.st2{fill:#EA4335;}
	.st3{fill:#4285F4;}
	.st4{fill:#FBBC04;}
	.st5{fill:#0F9D58;}
</style>
<g>
	<g>
		<path class="st0" d="M626.75,1074.45H608.1l-48.96-147.43h19.82l38.08,119.63h0.78l39.63-119.63h19.82L626.75,1074.45z"/>
		<path class="st0" d="M723.5,1077.74c-13.99,0-25.52-5.08-34.58-15.24c-9.07-10.16-13.6-22.99-13.6-38.51
			c0-15.37,4.4-28.17,13.21-38.4c8.81-10.22,20.08-15.34,33.81-15.34c14.12,0,25.35,4.84,33.71,14.52
			c8.35,9.68,12.53,23.24,12.53,40.67l-0.19,2.06h-74.8c0.26,9.88,3.37,17.85,9.33,23.89c5.96,6.04,13.08,9.06,21.37,9.06
			c11.4,0,20.33-6.04,26.81-18.12l15.93,8.24c-4.27,8.51-10.2,15.17-17.78,19.97S733.09,1077.74,723.5,1077.74z M694.94,1011.85
			h54.59c-0.52-7-3.21-12.8-8.06-17.4c-4.86-4.6-11.37-6.9-19.53-6.9c-6.74,0-12.53,2.2-17.39,6.59
			C699.7,998.54,696.5,1004.44,694.94,1011.85z"/>
		<path class="st0" d="M784.9,973.55h17.1v14h0.78c2.72-4.94,6.9-9.06,12.53-12.35c5.63-3.29,11.49-4.94,17.58-4.94
			c11.66,0,20.62,3.54,26.91,10.6c6.28,7.07,9.42,17.13,9.42,30.17v63.42h-17.87v-62.19c-0.39-16.47-8.23-24.71-23.51-24.71
			c-7.12,0-13.08,3.06-17.87,9.16c-4.79,6.11-7.19,13.42-7.19,21.93v55.8H784.9V973.55z"/>
		<path class="st0" d="M932.94,1077.74c-13.99,0-25.52-5.08-34.58-15.24c-9.07-10.16-13.6-22.99-13.6-38.51
			c0-15.37,4.4-28.17,13.21-38.4c8.81-10.22,20.08-15.34,33.81-15.34c14.12,0,25.35,4.84,33.71,14.52
			c8.35,9.68,12.53,23.24,12.53,40.67l-0.19,2.06h-74.8c0.26,9.88,3.37,17.85,9.33,23.89c5.96,6.04,13.08,9.06,21.37,9.06
			c11.4,0,20.33-6.04,26.81-18.12l15.93,8.24c-4.27,8.51-10.2,15.17-17.78,19.97S942.52,1077.74,932.94,1077.74z M904.38,1011.85
			h54.59c-0.52-7-3.21-12.8-8.06-17.4c-4.86-4.6-11.37-6.9-19.53-6.9c-6.74,0-12.53,2.2-17.39,6.59
			C909.14,998.54,905.94,1004.44,904.38,1011.85z"/>
		<path class="st0" d="M1065.64,1074.45H988.7v-16.47l54.21-67.13h-52.65v-17.3h74.61v16.47l-54.21,67.13h54.98V1074.45z"/>
		<path class="st0" d="M1107.8,938.75c0,3.71-1.23,6.87-3.69,9.47c-2.46,2.61-5.44,3.91-8.94,3.91s-6.48-1.3-8.94-3.91
			c-2.46-2.61-3.69-5.77-3.69-9.47c0-3.71,1.23-6.86,3.69-9.47c2.46-2.61,5.44-3.91,8.94-3.91s6.48,1.31,8.94,3.91
			C1106.56,931.89,1107.8,935.04,1107.8,938.75z M1104.11,973.55v100.9h-17.87v-100.9H1104.11z"/>
		<path class="st0" d="M1162.58,970.25c13.21,0,23.64,3.74,31.28,11.22c7.64,7.48,11.46,17.74,11.46,30.78v62.19h-17.1v-14h-0.78
			c-7.38,11.53-17.23,17.3-29.53,17.3c-10.49,0-19.27-3.29-26.33-9.88c-7.06-6.59-10.59-14.83-10.59-24.71
			c0-10.43,3.72-18.74,11.17-24.92c7.45-6.18,17.39-9.27,29.82-9.27c10.62,0,19.36,2.06,26.23,6.18v-4.32
			c0-6.59-2.46-12.18-7.38-16.78c-4.92-4.6-10.69-6.9-17.29-6.9c-9.97,0-17.87,4.46-23.7,13.38l-15.74-10.5
			C1132.79,976.84,1145.61,970.25,1162.58,970.25z M1139.46,1043.56c0,4.94,1.97,9.06,5.93,12.35c3.95,3.29,8.58,4.94,13.89,4.94
			c7.51,0,14.21-2.95,20.11-8.85c5.89-5.9,8.84-12.83,8.84-20.8c-5.57-4.67-13.34-7-23.31-7c-7.26,0-13.31,1.85-18.17,5.56
			C1141.89,1033.47,1139.46,1038.07,1139.46,1043.56z"/>
	</g>
	<g>
		<path class="st1" d="M104.76,1067.97c-11.12-6.41-19.96-15.24-26.5-26.5c-6.54-11.25-9.81-23.68-9.81-37.3
			c0-13.61,3.27-26.04,9.81-37.29c6.54-11.25,15.37-20.09,26.5-26.5c11.12-6.41,23.29-9.62,36.51-9.62c10.34,0,20.05,1.83,29.15,5.5
			c9.09,3.67,16.59,8.83,22.48,15.51l-11.97,11.97c-4.45-5.5-10.14-9.72-17.08-12.66c-6.94-2.94-14.4-4.42-22.38-4.42
			c-9.95,0-19.21,2.39-27.78,7.16c-8.57,4.78-15.44,11.52-20.61,20.22c-5.17,8.7-7.75,18.75-7.75,30.13
			c0,11.39,2.58,21.43,7.75,30.13c5.17,8.7,12.07,15.44,20.71,20.22c8.64,4.78,17.86,7.16,27.68,7.16c9.42,0,17.3-1.47,23.65-4.42
			c6.35-2.94,11.81-6.84,16.39-11.68c3.4-3.66,6.15-8.08,8.24-13.25c2.09-5.17,3.4-10.89,3.93-17.18h-52.02v-15.51h67.52
			c0.65,3.67,0.98,7.07,0.98,10.21c0,8.64-1.37,17.05-4.12,25.22c-2.75,8.18-7.13,15.34-13.15,21.49c-12.96,14-30.16,21-51.62,21
			C128.05,1077.59,115.88,1074.38,104.76,1067.97z"/>
		<path class="st1" d="M234.9,933.9h42.4c14.39,0,26.96,2.98,37.69,8.93c10.73,5.96,18.97,14.23,24.73,24.83
			c5.76,10.6,8.64,22.77,8.64,36.51c0,13.74-2.88,25.91-8.64,36.51c-5.76,10.6-14,18.88-24.73,24.83
			c-10.73,5.96-23.29,8.93-37.69,8.93h-42.4V933.9z M277.3,1058.55c16.62,0,29.8-4.78,39.55-14.33c9.75-9.55,14.62-22.9,14.62-40.04
			c0-17.14-4.88-30.49-14.62-40.04c-9.75-9.55-22.94-14.33-39.55-14.33h-25.91v108.74H277.3z"/>
		<path class="st1" d="M402.33,1067.97c-11.12-6.41-19.96-15.24-26.5-26.5c-6.54-11.25-9.81-23.68-9.81-37.3
			c0-13.61,3.27-26.04,9.81-37.29c6.54-11.25,15.37-20.09,26.5-26.5c11.12-6.41,23.29-9.62,36.51-9.62c10.34,0,20.05,1.83,29.15,5.5
			c9.09,3.67,16.59,8.83,22.48,15.51l-11.97,11.97c-4.45-5.5-10.14-9.72-17.08-12.66c-6.94-2.94-14.4-4.42-22.38-4.42
			c-9.95,0-19.21,2.39-27.78,7.16c-8.57,4.78-15.44,11.52-20.61,20.22c-5.17,8.7-7.75,18.75-7.75,30.13
			c0,11.39,2.58,21.43,7.75,30.13c5.17,8.7,12.07,15.44,20.71,20.22c8.64,4.78,17.86,7.16,27.68,7.16c9.42,0,17.3-1.47,23.65-4.42
			c6.35-2.94,11.81-6.84,16.39-11.68c3.4-3.66,6.15-8.08,8.24-13.25c2.09-5.17,3.4-10.89,3.93-17.18h-52.02v-15.51h67.52
			c0.65,3.67,0.98,7.07,0.98,10.21c0,8.64-1.37,17.05-4.12,25.22c-2.75,8.18-7.13,15.34-13.15,21.49c-12.96,14-30.16,21-51.62,21
			C425.62,1077.59,413.45,1074.38,402.33,1067.97z"/>
	</g>
	<g>
		<g>
			<path class="st2" d="M333.43,468.51l189.12-109.19c44.51-25.69,59.76-82.61,34.06-127.12c-25.7-44.51-82.6-59.76-127.12-34.06
				L102.7,386.81L333.43,468.51z"/>
		</g>
		<g>
			<path class="st3" d="M475.94,749.15c32.16,0,63.44-16.69,80.68-46.54c25.7-44.51,10.45-101.42-34.06-127.12L195.76,386.81
				c-44.51-25.71-101.42-10.44-127.12,34.06c-25.7,44.51-10.45,101.42,34.06,127.12L429.5,736.66
				C444.15,745.13,460.15,749.15,475.94,749.15z"/>
		</g>
		<g>
			<path class="st4" d="M801.01,749.15c15.79,0,31.78-4.02,46.44-12.48l326.79-188.67l-227.79-83.39L754.4,575.49
				c-44.51,25.69-59.76,82.61-34.06,127.12C737.57,732.45,768.85,749.15,801.01,749.15z"/>
		</g>
		<g>
			<path class="st5" d="M1127.63,560.48c32.16,0,63.44-16.69,80.68-46.54c25.7-44.51,10.45-101.42-34.06-127.12L847.45,198.14
				c-44.51-25.69-101.42-10.45-127.12,34.06c-25.7,44.51-10.45,101.42,34.06,127.12l326.79,188.68
				C1095.84,556.45,1111.84,560.48,1127.63,560.48z"/>
		</g>
	</g>
</g>
</svg>
