<?xml version="1.0" encoding="utf-8"?>
<!-- Generator: Adobe Illustrator 19.2.1, SVG Export Plug-In . SVG Version: 6.00 Build 0)  -->
<svg version="1.1" xmlns="http://www.w3.org/2000/svg" xmlns:xlink="http://www.w3.org/1999/xlink" x="0px" y="0px"
	 viewBox="0 0 841.9 595.3" enable-background="new 0 0 841.9 595.3" xml:space="preserve">
<g id="Livello_1">
	<rect id="background_1_" x="173.9" y="50.6" fill="#8F001C" width="494" height="494"/>
	<g>
		<g>
			<path id="j_10_" fill="#FFB200" d="M369.3,472l30.2-18.3c5.8,10.3,11.1,19.1,23.8,19.1c12.2,0,19.9-4.8,19.9-23.3V323.4h37.1V450
				c0,38.4-22.5,55.9-55.4,55.9C395.3,505.9,378.1,490.5,369.3,472"/>
			<path id="s_10_" fill="#FFB200" d="M500.5,468l30.2-17.5c7.9,13,18.3,22.5,36.6,22.5c15.4,0,25.2-7.7,25.2-18.3
				c0-12.7-10.1-17.2-27-24.6l-9.3-4c-26.8-11.4-44.5-25.7-44.5-55.9c0-27.8,21.2-49,54.3-49c23.6,0,40.5,8.2,52.7,29.7l-28.9,18.5
				c-6.4-11.4-13.2-15.9-23.8-15.9c-10.9,0-17.7,6.9-17.7,15.9c0,11.1,6.9,15.6,22.8,22.5l9.3,4c31.5,13.5,49.3,27.3,49.3,58.3
				c0,33.4-26.2,51.7-61.5,51.7C533.6,505.9,511.3,489.5,500.5,468"/>
		</g>
	</g>
	<rect x="489" y="239.4" fill="#FFB200" width="21.1" height="54"/>
	<rect x="446.2" y="239.4" fill="#FFB200" width="21.1" height="54"/>
	<rect x="403.5" y="239.4" fill="#FFB200" width="21.1" height="54"/>
	<rect x="275.3" y="239.4" fill="#FFB200" width="21.1" height="54"/>
	<rect x="318" y="239.4" fill="#FFB200" width="21.1" height="54"/>
	<rect x="232.5" y="239.4" fill="#FFB200" width="21.1" height="54"/>
	<rect x="489" y="167.5" fill="#FFB200" width="21.1" height="54"/>
	<rect x="446.2" y="167.5" fill="#FFB200" width="21.1" height="54"/>
	<rect x="360.8" y="167.5" fill="#FFB200" width="21.1" height="54"/>
	<rect x="403.5" y="167.5" fill="#FFB200" width="21.1" height="54"/>
	<rect x="275.3" y="167.5" fill="#FFB200" width="21.1" height="54"/>
	<polygon fill="#FFB200" points="391.8,293 295.1,96 274,96 370.6,293 	"/>
	<rect x="232.5" y="167.5" fill="#FFB200" width="21.1" height="54"/>
	<rect x="232.5" y="95.6" fill="#FFB200" width="21.1" height="54"/>
	<rect x="489" y="239.4" fill="#FFB200" width="21.1" height="54"/>
	<rect x="446.2" y="239.4" fill="#FFB200" width="21.1" height="54"/>
	<rect x="403.5" y="239.4" fill="#FFB200" width="21.1" height="54"/>
	<rect x="275.3" y="239.4" fill="#FFB200" width="21.1" height="54"/>
	<rect x="318" y="239.4" fill="#FFB200" width="21.1" height="54"/>
	<rect x="232.5" y="239.4" fill="#FFB200" width="21.1" height="54"/>
	<rect x="489" y="167.5" fill="#FFB200" width="21.1" height="54"/>
	<rect x="446.2" y="167.5" fill="#FFB200" width="21.1" height="54"/>
	<rect x="360.8" y="167.5" fill="#FFB200" width="21.1" height="54"/>
	<rect x="403.5" y="167.5" fill="#FFB200" width="21.1" height="54"/>
	<rect x="275.3" y="167.5" fill="#FFB200" width="21.1" height="54"/>
	<polygon fill="#FFB200" points="391.8,293 295.1,96 274,96 370.6,293 	"/>
	<rect x="232.5" y="167.5" fill="#FFB200" width="21.1" height="54"/>
	<rect x="232.5" y="95.6" fill="#FFB200" width="21.1" height="54"/>
</g>
<g id="Livello_2">
</g>
</svg>
