<svg width="250" height="346" viewBox="0 0 250 346" fill="none" xmlns="http://www.w3.org/2000/svg">
<g clip-path="url(#clip0)">
<rect width="250" height="346" fill="white"/>
<rect x="40" y="256" width="10" height="10" fill="#F5A623"/>
<rect x="40" y="266" width="10" height="10" fill="#F5A623"/>
<rect x="40" y="276" width="10" height="10" fill="#F5A623"/>
<rect x="40" y="286" width="10" height="10" fill="#F5A623"/>
<rect x="40" y="296" width="10" height="10" fill="#F5A623"/>
<rect x="80" y="256" width="10" height="10" fill="#F5A623"/>
<rect x="80" y="266" width="10" height="10" fill="#F5A623"/>
<rect x="80" y="246" width="10" height="10" fill="#F5A623"/>
<rect x="80" y="246" width="10" height="10" fill="#F5A623"/>
<rect x="40" y="246" width="10" height="10" fill="#F5A623"/>
<rect x="50" y="246" width="10" height="10" fill="#F5A623"/>
<rect x="60" y="246" width="10" height="10" fill="#F5A623"/>
<rect x="60" y="256" width="10" height="10" fill="#F5A623"/>
<rect x="60" y="266" width="10" height="10" fill="#F5A623"/>
<rect x="70" y="246" width="10" height="10" fill="#F5A623"/>
<rect x="40" y="246" width="10" height="10" fill="#F5A623"/>
<rect x="80" y="276" width="10" height="10" fill="#F5A623"/>
<rect x="80" y="286" width="10" height="10" fill="#F5A623"/>
<rect x="80" y="286" width="10" height="10" fill="#F5A623"/>
<rect x="80" y="296" width="10" height="10" fill="#F5A623"/>
<rect x="100" y="256" width="10" height="10" fill="#F5A623"/>
<rect x="100" y="266" width="10" height="10" fill="#F5A623"/>
<rect x="100" y="276" width="10" height="10" fill="#F5A623"/>
<rect x="110" y="296" width="10" height="10" fill="#F5A623"/>
<rect x="100" y="296" width="10" height="10" fill="#F5A623"/>
<rect x="120" y="296" width="10" height="10" fill="#F5A623"/>
<rect x="130" y="296" width="10" height="10" fill="#F5A623"/>
<rect x="140" y="296" width="10" height="10" fill="#F5A623"/>
<rect x="140" y="256" width="10" height="10" fill="#F5A623"/>
<rect x="100" y="246" width="10" height="10" fill="#F5A623"/>
<rect x="140" y="246" width="10" height="10" fill="#F5A623"/>
<rect x="140" y="266" width="10" height="10" fill="#F5A623"/>
<rect x="140" y="276" width="10" height="10" fill="#F5A623"/>
<rect x="100" y="286" width="10" height="10" fill="#F5A623"/>
<rect x="140" y="286" width="10" height="10" fill="#F5A623"/>
<rect x="160" y="256" width="10" height="10" fill="#F5A623"/>
<rect x="160" y="246" width="10" height="10" fill="#F5A623"/>
<rect x="160" y="266" width="10" height="10" fill="#F5A623"/>
<rect x="160" y="276" width="10" height="10" fill="#F5A623"/>
<rect x="160" y="286" width="10" height="10" fill="#F5A623"/>
<rect x="160" y="296" width="10" height="10" fill="#F5A623"/>
<rect x="170" y="296" width="10" height="10" fill="#F5A623"/>
<rect x="180" y="296" width="10" height="10" fill="#F5A623"/>
<rect x="190" y="296" width="10" height="10" fill="#F5A623"/>
<rect x="190" y="276" width="10" height="10" fill="#F5A623"/>
<rect x="200" y="276" width="10" height="10" fill="#F5A623"/>
<rect x="200" y="286" width="10" height="10" fill="#F5A623"/>
<rect x="200" y="296" width="10" height="10" fill="#F5A623"/>
<rect x="160" y="246" width="10" height="10" fill="#F5A623"/>
<rect x="170" y="246" width="10" height="10" fill="#F5A623"/>
<rect x="180" y="246" width="10" height="10" fill="#F5A623"/>
<rect x="190" y="246" width="10" height="10" fill="#F5A623"/>
<rect x="150" y="199" width="10" height="10" fill="#0050A4"/>
<rect x="140" y="199" width="10" height="10" fill="#0050A4"/>
<rect x="130" y="199" width="10" height="10" fill="#0050A4"/>
<rect x="120" y="199" width="10" height="10" fill="#0050A4"/>
<rect x="110" y="199" width="10" height="10" fill="#0050A4"/>
<rect x="100" y="199" width="10" height="10" fill="#0050A4"/>
<rect x="90" y="199" width="10" height="10" fill="#0050A4"/>
<rect x="160" y="189" width="10" height="10" fill="#0050A4"/>
<rect x="150" y="189" width="10" height="10" fill="#0050A4"/>
<rect x="140" y="189" width="10" height="10" fill="#0050A4"/>
<rect x="130" y="189" width="10" height="10" fill="#0050A4"/>
<rect x="120" y="189" width="10" height="10" fill="#0050A4"/>
<rect x="110" y="189" width="10" height="10" fill="#0050A4"/>
<rect x="100" y="189" width="10" height="10" fill="#0050A4"/>
<rect x="90" y="189" width="10" height="10" fill="#0050A4"/>
<rect x="80" y="189" width="10" height="10" fill="#0050A4"/>
<rect x="160" y="179" width="10" height="10" fill="#0050A4"/>
<rect x="150" y="179" width="10" height="10" fill="#0050A4"/>
<rect x="140" y="179" width="10" height="10" fill="#0050A4"/>
<rect x="130" y="179" width="10" height="10" fill="#0050A4"/>
<rect x="120" y="179" width="10" height="10" fill="#0050A4"/>
<rect x="110" y="179" width="10" height="10" fill="#4A90E2"/>
<rect x="100" y="179" width="10" height="10" fill="#4A90E2"/>
<rect x="90" y="179" width="10" height="10" fill="#0050A4"/>
<rect x="80" y="179" width="10" height="10" fill="#0050A4"/>
<rect x="160" y="169" width="10" height="10" fill="#0050A4"/>
<rect x="150" y="169" width="10" height="10" fill="#0050A4"/>
<rect x="140" y="169" width="10" height="10" fill="#0050A4"/>
<rect x="130" y="169" width="10" height="10" fill="#0050A4"/>
<rect x="120" y="169" width="10" height="10" fill="#0050A4"/>
<rect x="110" y="169" width="10" height="10" fill="#0050A4"/>
<rect x="100" y="169" width="10" height="10" fill="#4A90E2"/>
<rect x="90" y="169" width="10" height="10" fill="#0050A4"/>
<rect x="80" y="169" width="10" height="10" fill="#0050A4"/>
<rect x="160" y="159" width="10" height="10" fill="#0050A4"/>
<rect x="150" y="159" width="10" height="10" fill="#0050A4"/>
<rect x="140" y="159" width="10" height="10" fill="#0050A4"/>
<rect x="130" y="159" width="10" height="10" fill="#0050A4"/>
<rect x="120" y="159" width="10" height="10" fill="#0050A4"/>
<rect x="110" y="159" width="10" height="10" fill="#0050A4"/>
<rect x="100" y="159" width="10" height="10" fill="#4A90E2"/>
<rect x="90" y="159" width="10" height="10" fill="#4A90E2"/>
<rect x="80" y="159" width="10" height="10" fill="#0050A4"/>
<rect x="160" y="149" width="10" height="10" fill="#0050A4"/>
<rect x="150" y="149" width="10" height="10" fill="#0050A4"/>
<rect x="140" y="149" width="10" height="10" fill="#0050A4"/>
<rect x="130" y="149" width="10" height="10" fill="#0050A4"/>
<rect x="120" y="149" width="10" height="10" fill="#0050A4"/>
<rect x="110" y="149" width="10" height="10" fill="#0050A4"/>
<rect x="100" y="149" width="10" height="10" fill="#4A90E2"/>
<rect x="90" y="149" width="10" height="10" fill="#4A90E2"/>
<rect x="80" y="149" width="10" height="10" fill="#0050A4"/>
<rect x="160" y="139" width="10" height="10" fill="#0050A4"/>
<rect x="150" y="139" width="10" height="10" fill="#0050A4"/>
<rect x="140" y="139" width="10" height="10" fill="#0050A4"/>
<rect x="130" y="139" width="10" height="10" fill="#0050A4"/>
<rect x="120" y="139" width="10" height="10" fill="#0050A4"/>
<rect x="110" y="139" width="10" height="10" fill="#0050A4"/>
<rect x="100" y="139" width="10" height="10" fill="#0050A4"/>
<rect x="90" y="139" width="10" height="10" fill="#4A90E2"/>
<rect x="80" y="139" width="10" height="10" fill="#0050A4"/>
<rect x="160" y="129" width="10" height="10" fill="#0050A4"/>
<rect x="150" y="129" width="10" height="10" fill="#0050A4"/>
<rect x="140" y="129" width="10" height="10" fill="#0050A4"/>
<rect x="130" y="129" width="10" height="10" fill="#0050A4"/>
<rect x="120" y="129" width="10" height="10" fill="#0050A4"/>
<rect x="110" y="129" width="10" height="10" fill="#0050A4"/>
<rect x="100" y="129" width="10" height="10" fill="#0050A4"/>
<rect x="90" y="129" width="10" height="10" fill="#0050A4"/>
<rect x="80" y="129" width="10" height="10" fill="#0050A4"/>
<rect x="160" y="119" width="10" height="10" fill="#0050A4"/>
<rect x="170" y="119" width="10" height="10" fill="#0050A4"/>
<rect x="170" y="129" width="10" height="10" fill="#0050A4"/>
<rect x="180" y="129" width="10" height="10" fill="#0050A4"/>
<rect x="180" y="139" width="10" height="10" fill="#0050A4"/>
<rect x="180" y="149" width="10" height="10" fill="#0050A4"/>
<rect x="180" y="159" width="10" height="10" fill="#0050A4"/>
<rect x="170" y="169" width="10" height="10" fill="#0050A4"/>
<rect x="170" y="159" width="10" height="10" fill="#0050A4"/>
<rect x="150" y="119" width="10" height="10" fill="#0050A4"/>
<rect x="140" y="119" width="10" height="10" fill="#0050A4"/>
<rect x="130" y="119" width="10" height="10" fill="#0050A4"/>
<rect x="120" y="119" width="10" height="10" fill="#0050A4"/>
<rect x="110" y="119" width="10" height="10" fill="#0050A4"/>
<rect x="100" y="119" width="10" height="10" fill="#0050A4"/>
<rect x="90" y="119" width="10" height="10" fill="#0050A4"/>
<rect x="80" y="119" width="10" height="10" fill="#0050A4"/>
<rect x="160" y="109" width="10" height="10" fill="#0050A4"/>
<rect x="150" y="109" width="10" height="10" fill="#0050A4"/>
<rect x="140" y="109" width="10" height="10" fill="#0050A4"/>
<rect x="130" y="109" width="10" height="10" fill="#0050A4"/>
<rect x="120" y="109" width="10" height="10" fill="#0050A4"/>
<rect x="110" y="109" width="10" height="10" fill="#0050A4"/>
<rect x="100" y="109" width="10" height="10" fill="#0050A4"/>
<rect x="90" y="109" width="10" height="10" fill="#0050A4"/>
<rect x="80" y="109" width="10" height="10" fill="#0050A4"/>
<rect x="160" y="99" width="10" height="10" fill="#0050A4"/>
<rect x="150" y="99" width="10" height="10" fill="#0050A4"/>
<rect x="140" y="99" width="10" height="10" fill="#0050A4"/>
<rect x="130" y="99" width="10" height="10" fill="#0050A4"/>
<rect x="120" y="99" width="10" height="10" fill="#0050A4"/>
<rect x="110" y="99" width="10" height="10" fill="#0050A4"/>
<rect x="100" y="99" width="10" height="10" fill="#0050A4"/>
<rect x="100" y="79" width="10" height="10" fill="#9B9B9B"/>
<rect x="140" y="79" width="10" height="10" fill="#9B9B9B"/>
<rect x="150" y="69" width="10" height="10" fill="#9B9B9B"/>
<rect x="150" y="59" width="10" height="10" fill="#9B9B9B"/>
<rect x="140" y="49" width="10" height="10" fill="#9B9B9B"/>
<rect x="150" y="39" width="10" height="10" fill="#9B9B9B"/>
<rect x="120" y="79" width="10" height="10" fill="#9B9B9B"/>
<rect x="130" y="69" width="10" height="10" fill="#9B9B9B"/>
<rect x="120" y="59" width="10" height="10" fill="#9B9B9B"/>
<rect x="90" y="99" width="10" height="10" fill="#0050A4"/>
<rect x="80" y="99" width="10" height="10" fill="#0050A4"/>
</g>
<defs>
<clipPath id="clip0">
<rect width="250" height="346" fill="white"/>
</clipPath>
</defs>
</svg>
