<?xml version="1.0" encoding="utf-8"?>
<!-- Generator: Adobe Illustrator 18.0.0, SVG Export Plug-In . SVG Version: 6.00 Build 0)  -->
<!DOCTYPE svg PUBLIC "-//W3C//DTD SVG 1.1//EN" "http://www.w3.org/Graphics/SVG/1.1/DTD/svg11.dtd">
<svg version="1.1" id="Livello_1" xmlns="http://www.w3.org/2000/svg" xmlns:xlink="http://www.w3.org/1999/xlink" x="0px" y="0px"
	 viewBox="0 0 841.9 595.3" enable-background="new 0 0 841.9 595.3" xml:space="preserve">
<g>
	<polygon fill="#0095CD" points="339.1,36.7 528.7,68.5 595.9,248.6 473.5,396.9 283.9,365.1 216.7,185 	"/>
</g>
<g>
	<path d="M230.6,188.3c-0.4,0.5-0.6,0.6-0.7,0.6l-0.8,1.3L230.6,188.3z"/>
	<path d="M287.4,86.9l0.1-0.2c-0.2,0.1-0.4,0.3-0.6,0.3C287,87.3,287,87.3,287.4,86.9z"/>
	<path d="M273.1,112.4c-0.4,0.4-0.7,0.7-1.1,1C272.1,113.4,272.5,113,273.1,112.4z"/>
	<path d="M240.1,175.4l-2.6,3C238,178.2,239.1,177.1,240.1,175.4z"/>
	<path d="M275.7,109.4c-0.7,0.8-1.8,2.1-2.6,3C274,111.5,274.8,110.5,275.7,109.4z"/>
	<path d="M318.2,41.4c-0.5,0.6-1.1,1.2-1.7,2c0,0.1,0,0.2,0.1,0.3L318.2,41.4z"/>
	<path d="M342.8,51.7c2.6,0,3-0.2,2.7-0.5C345.1,51.4,344.3,51.6,342.8,51.7z"/>
	<path d="M406.3,56.5c-0.5,0-1,0.1-1.4,0.1C405.9,56.6,406.5,56.5,406.3,56.5z"/>
	<path d="M370.2,48.6c-0.1-0.2-0.2-0.3-0.5-0.4C369.5,48.3,369.6,48.4,370.2,48.6z"/>
	<path d="M567.4,311.2l1.1-1.1C568.3,310.2,567.9,310.6,567.4,311.2z"/>
	<path d="M521.6,381.3l-0.4,0.6L521.6,381.3z"/>
	<path d="M520.2,383.4l1-1.4C520.8,382.6,520.4,383.1,520.2,383.4z"/>
	<path d="M321.3,40.2c0.6-2,3.3-6.3,2.8-6.8l-5.8,8C320.6,38.8,322.3,37.8,321.3,40.2z"/>
	<path d="M558.1,151.9c1.4,2.9,2.3,4.3,2.7,4.9l-2.8-5.1L558.1,151.9z"/>
	<polygon points="596.2,215.1 596,214.8 596.2,215.2 	"/>
	<path d="M555,147.1c-0.3-0.3-0.5-0.6-0.8-0.7C554.7,147.4,554.9,147.4,555,147.1z"/>
	<path d="M230.2,205.1c0.3,0.4,0.5,0.8,0.8,1.3C230.7,205.9,230.4,205.5,230.2,205.1z"/>
	<path d="M595,210.2l1.2,4.9c0.4,0.5,0.9,1,1.5,1.7C598.8,217.2,596.3,212.2,595,210.2z"/>
	<path d="M555,147.1c0.9,1,2,2.6,3.1,4.7l-0.6-2.6C554.6,143.3,555.1,146.3,555,147.1z"/>
	<path d="M337.5,48.2c3,0.8-7.6,1-1.3,1.8l6.3-0.9c-1.1,0.6,2.4,1.6,3,2.2c2.6-1.1-7.8-2.7-0.4-3.9c1.8-0.6,7.3-0.1,10.1,0.3
		c-6.2-0.7,0.2-1.2,2.8-1.4c3.8,0.8,10,1,11.7,2c0.6-0.3,3.6-0.2,5.6,0.1l0.2,0.4c4.6,0-1.5-0.5-0.3-0.9c3.3,0.1,8.5,1.4,13.9,1.7
		c-5.4-0.3-10-0.1-13.9,0.1c9.8,1.5-1.9,2-4.2,3c8,0.1,11.1-0.5,17.6-0.7c7.8,1.5-0.8,3.1-2.9,3.1c7.3-0.1,14.9-0.9,18.8-1.1
		c-5.5,1.3-4.6,1.9-9.6,2.9c5.7,1.4,7,0.3,9.8-0.1c-1.6,0-4.1,0-4.7-0.4c6.9,0.6,5.9-2,9.5-2.9c5,1.1,14.7,2.1,13.9,3.6l0.1-1.6
		c6,0.1,3,1.1,3.9,1.6c2.3-0.9-0.4-2.7,9.7-2.4c-1.7,2.5,8.9,0.9,8.5,3.2c4.7,0.2,6.9-1,11.8-0.3c5.3,1.7-7.6,2.7-10.5,2
		c-6.8-0.4,1-1-1.7-1.2l-6.5,0.2c3.6,0.8,10.6,1.9,9.7,2.9c6.6,0-5.2-1.5,2.1-1.6l4.3,0.9c7.3-0.1-1.4-1.9,8.1-1.5
		c-6.4,0.7,10.2,0.8,9.5,2.4c0.5-2.1,16.9,1,19-0.6l-5-0.9l1,1c-5.4-0.3-10-0.1-15.6-0.9c4.5-0.5-1.4-1.9,3.8-2.2
		c9.7-0.6,2.5,1.3,3.8,1.4l7.7-0.6l-5.1-1.3c6,0,14.1,0.6,22.4,1.3c12.1,2.2-1.6,1.1,7,2.9c2-0.1,2.7-0.3,3.7-0.4
		c0.5-0.1,1-0.1,1.8-0.1l1.1,0.1c0.3,0,0.6,0.1,1,0.1c-0.4-0.2-0.8-0.3-1.1-0.3l-0.4,0l-0.5,0c-0.3,0-0.6,0-0.9,0
		c-1.2,0-2.3,0.2-3.4,0c-1.3-0.8,1.2-0.8,4-0.7l1,0l0.2,0l0.2,0l0.3,0c0.4,0,0.8,0,1.1-0.1c0.7-0.1,1.1-0.2,1.2-0.6
		c1.3,0.6,0.7,1.1-0.5,1.6c1.1,0,2.2,0,3.3,0c0.9,1.7,1.7,3.5,2.1,4.9l0.1,0.3l0.2,0.5l0.3,0.9c0.2,0.6,0.4,1.2,0.5,1.7
		c0.3,1.1,0.4,2,0.4,2.8l3.2,2.9c6.4,14.6-6.1-9.2-1.2,3.4c2.3,5.1,4.7,9.9,6.4,11.8l-2-4.3c2.4,2.9,2.9,2.4,6,7.4
		c1.7,3.8-0.3,2.3,2.7,6.4c4.7,11.9-0.6,4.6-2.9,3.5c3.3,8.7-4.9-2.9-1.5,2.5l-0.4-1.7l6.2,7.7c-2.3-8.9-3.1-2.5-3-6.5l-2.2-4.9
		c1.6,1.1,6.4,12.6,7.8,13.2c-0.4,0.3-2.2-0.3-4.7-5.3l-0.4,3.9c1.2,3,3.4,4.3,3.3,6.3c0.9,4.9-5-5.4-0.3,5.5
		c5.1,11.6,7.1,9.8,10.5,17.7c0-1-0.9-2.9-2.1-5.4c1.8,2.2,0.2-2.5,2.7,1.6c-0.1,3,4,11.2,7,17.4c-1.5-1.3-0.2,3-1.5,1.3
		c1.7,3.1,3.3,5.9,4.5,7c-5.2-13.2,7,11.8,3.5,1.3c4.7,9.9,4.5,12.4,6.8,18.9c-0.6-0.2-6.3-11-2.6-2c6.2,9.5,0.9-2.7,6.3,4.4
		l-2.6-6.6c1.2-1.6,5.7,10.8,6.8,12.3c1.5,4.1-3.1-5.2-2.3-0.9c2.5,6,4.9,8.5,6.1,12.5c-2.8-3.1-1.3-1-4.3-4.7
		c6.7,13.7-1.6-0.1,2.8,10.7c1.8,3.2,1.7,0.7,4.1,6.1c-0.4-3.7,0.2-3.5-3.9-12.2c3.2,2.2,5.1,11.6,9.1,17.2
		c-2.2-4.9-0.4-1.7-3.2-6.8c1.1-1.4,0.3-3.4,4,0.7c-3.1-5.5-5.8-7.2-9.3-15.4c0.4-2.9,5.9,9.4,7.8,8.6c1.4,1.8,3.1,5.2,4.7,8.8
		c0.4,0.9,0.8,1.8,1.1,2.7l0.5,1.3l0.2,0.6l0.1,0.4c0.3,1,0.5,1.8,0.6,2.4c0.6,0.7,1.2,1.5,1.8,2.3c-0.4,0.9-0.8,1.9-1.3,2.9
		l-0.7,1.5l-0.4,0.8l-0.7,1.2c-1.8,3.3-3.3,6.3-4.2,9c-4,4.9-11.4,18.8-18.5,28.4c-1.8,1-8.7,11.7-5.4,5.1c-0.3,1-5.7,9.3-3.6,7.6
		c0.3-1,1.2-1.8,2.3-3.6l-0.1,2.2c-3.6,4.5-6,10.6-9.7,14.7c-1.8,1,5.3-8.9,2.3-6.4c-1.6,5.3-13,23.5-17.5,28.8
		c-2.8,3.7-4.3,3.3-5.5,4.8l-4.2,6.5c-0.9,0.5-1.4,0.3-2.7,1.1c-2.4,3-3.5,5.4-4.6,7.5c-6.4,7.8-4.4,2.7-2.2-2.1l3.6-4.4
		c1.8-3.8,5.4-8.6,2.3-6.4c-1.5,2.5-1,2.7-1.3,3.7l-2.5,2.3c-1.4,3.1-6.4,11-5,10.7c-4.4,5.2-8.1,12.2-12.2,16.8
		c2.9-3.1,0.2,1.5,1.6,1l4.3-5.9c-3,5-7.2,12.4-10.8,16.5c-0.1-0.9-0.2-1.2-2.3,0.7c0.7-0.7,0.8-0.5,0.6,0.2
		c-0.1,0.3-0.3,0.7-0.5,1.2c-0.2,0.4-0.5,1-0.5,1.2c-0.2,0.6-0.4,1.1-0.3,1.3c0.1,0.1,0.2,0.1,0.4-0.1c0.1-0.1,0.3-0.2,0.5-0.4
		l0.3-0.3l0.2-0.2l0.3-0.3c1.5-2.8,3-5.3,5.4-8.6c2.6-1.4-0.8,3.9-2.2,7.3l-5.9,10.1l-4.9,0.1c-0.8-0.1-1.5-0.3-2.1-0.6l-0.9-0.3
		l-0.4-0.2l-0.6-0.2c-1.5-0.4-3.4-0.7-6.7-0.5c8.2,1.9-8,1.6-10.2,2.8c-6.2-1.1-10.3,0.4-15.2-1.1c2.6-0.3,12.2,0.5,14.8-0.4
		c0.4-0.9-1.9-2.7,7.6-2.5c-11.4-1.3-6.8,0.3-12.1,0.3l3.9,0.2c-1.8,0.3,1.5,1.2-2,1c-13.4-1.3-15.7-2.6-24.6-4.4
		c2,0.9-2.2,1.2-4.4,1.1c-8.7-1.5,0.3-2.1-5-3.9c-3.1,0.7-9,0-7.1,0.8c-3.5-0.2-1.6-0.5-4.1-1c-2.3,0.6-4.9,0.9-9.7,0.6
		c0.5-0.4,1.2-1,5.8-0.4c-5.1-0.7-6.9-2.3-4.6-3l8.3,1.2c3.9-0.7-7.8-1-7.4-1.9c3.7,0,6.5,0.9,8.8,0.8c-2.3-1.2-9.6-0.8-13.9-1
		c-6.7-0.7-4.2-1.5-4.2-2.1c-11.5,0.8,13,2.8,2.3,3.6c-4.1,0.9-14.3,0-21.5-0.3c6,1.8-0.8,1.9-8.2,1.8c9.6,0.7,2.3,1.8,13.7,1.7
		l0.1,1.1c-4.8-0.4-10.5-1.3-15.3-1.6c1-0.2-0.1-0.6,1.5-0.6l-14.4-0.6l1.5-0.6c-8.8-0.8-19.6-2.4-24.9-2.4c4.3,0.2,7.9,1.6,3.4,1.5
		c-2.6,0.3-7.3,0.5-11.4,0.1c-2-1.4-17.2-2.5-7.5-3.1c-12.2-0.3-7.8,0.3-17.2,0.3l-0.5-0.8l0.4,0.8l5.9,0.2c0.3,0.5-1.1,1.1-1.9,1.7
		c-0.7,0.6-0.8,1.1,3.1,1.8c-3.4,0-5,0.3-6.2,0.6c-1.2,0.3-2.1,0.7-4.4,0.8c-0.8-1.1-1.9-3-3.6-6.3c-0.9-2.5-0.4-2.6,0.6-1.4
		c1,1.2,2.6,3.5,4.1,6.1l2,0c-0.6-0.1-1.2-0.1-1.8-0.2c-1.1-2.7-2-5.2-3.8-7.6c-0.2-1.4,0.8-0.1,1.9,1.4c1.1,1.5,2.1,3.1,2.2,2.8
		c-1.3-2.7-1.3-2.5-1.5-2.4c-0.1,0.2-0.2,0.5-1.6-2.1c-5.5-8.7-1.3-6.6-6.2-15.1c1,1.9,2.3,5.5,0.8,3.4c-5.7-11.8-4.1-6.1-8.7-14.5
		c-1-5.5,1.4-4-2-11.9l2.1,4.3c-0.8-3.3-2.2-6.9-3.7-10c-8.9-15.6-17.4-28-26.4-44.1l3.2,5.8c0.5,2.2-3-4.7-3.4-4.4l-1.2-4
		c-1.4-0.6,3.1,8.8,1.1,7c-0.1-0.6-0.7-1.8-1.1-2.5l1.4,3.6c-3.5-7.9-8.1-13.3-9.4-19.9c7.5,15.1,3.9,1,11.6,15.6
		c-4.2-7.7,0.3-1.9,0.4-2.9c-1.8-4.2-1.7-1.7-3.6-6.5c0.7-0.2,6.2,9.5,4.5,4.8c-1.3,0-3.1-4.2-4.8-5.9c-1.4-3.6,0.7-0.2,0.3-1.9
		c-1-1.9-2-2.8-2.7-4.6l1.3,1c-3.7-10-2.4-2.4-7.4-13.5c-1,0.1,0.8,3.4,3.2,7.8c-0.8,3.2-8.9-13-10.5-11.1
		c-5.3-10.2,2.1,2.3-1.6-6.7c-1-5.5,4.5,5.8,6.5,7.6l-3.6-9.5c3.2,2.2,5.3,8.1,7.6,9c-3.2-6.8-3.2-5.8-7.1-12.4
		c4.1,11.7-3.4-4.3-2,2.8c-2.1-5.3-0.9-3.9-4.5-11.4c2.7,4.6,1.5-0.5,4.5,5.8c-5-10-4.1-7.1-9-17.2c-2.7-2.6,3.4,10.9-3.3-0.8
		c-1.3-2.6-0.6-2.3,0.2-0.8c-3.7-8.9-0.6,2.5-3.9-2.7c-0.2-0.4-0.5-1-0.7-1.4c-0.2-0.4-0.4-0.8-0.6-1.2c-0.3-0.7-0.5-1.3-0.6-1.6
		c-0.2-0.7,0.1-0.7,0.6,0.1c-1.8-2.9-2.6-3.7-3.2-4.1c-0.6-0.5-1-0.6-2.1-2.5l0.2-0.4l-0.3,0.4l0.7,1.6c-0.5-0.7-0.8-0.4-1.2-0.3
		c-0.4,0.1-0.9,0.1-2-1.5c0.4-0.9,1.3-2.5,2.9-4.9c5-7.3,4-4.6,4.6-4.6l1.1-1.8c0.3-0.5,0.6-1,0.9-1.5c0.6-1,1.3-1.9,1.9-2.7
		c1.2-1.7,2.5-3.1,3.7-4.4c-0.4,0.1-0.4-0.3,0.5-1.6c4.6-7.5,3.8-3.5,5.7-6.1c7.6-9.9-2.9-0.1,4.9-11.6l-9.4,13.1
		c-0.1-0.9-0.8-1.8-2.7,1.1c0.6,0.8-1.9,6-5.1,10.4c-1.8,0.7,7.1-12.7,1-5.8c2-2.6,4.3-6.5,6.6-9.7c-1.3,4,7.4-10.5,4.6-4
		c9.7-14.7,11.8-16.4,20.2-30.2c-0.2,1.6-4.4,11.2-9.6,17.9l-0.9,0.2c-5.3,9.2,5.2-6.4,5.1-4.1c5.8-11.8,16.9-23.3,25.3-36.9
		c-2.1,2-0.6-0.8-0.7-1.8c-3.5,5.4-2.6,4.6-5.9,8c-0.2-1.2,2.2-4.2,2.8-6.2c0.2-1.9-2.7,4-4.4,5.6c3-5.3,2.6-4.9,4-8.3
		c2.5-2.4,2.6-1.7,4.7-3.4c8.6-12.3,6.3-11.9,13.3-21.7c-3.9,5.5,2.6-2.1-1.8,3.8l2.4-3.3c-4.7,9.4-14.9,24.2-12,24
		c4.6-7.2,7.1-13,12.9-21.6l0.1,0.6c4.3-6.2-0.5-0.2,0.2-1.9c4.1-7.4,7.9-7.8,9.9-13.5l-5.1,6.9c2.9-5.9-1.2,1.5-1.6-0.6
		c5.6-10.2,17.4-26.3,25.7-40.4c-3.3,3.5-4.1,4.5-7.6,9.6c-0.1-3.4,1.6-5.3-1.6-3.8l-4.3,6.2l-1.6-1c1.1-1.7,2.4-3.3,3.5-4.8
		c-0.4-1.5,6.7-9.2,6.1-10.3l-3.5,5.4c-2.6,2.1,1.8-4.1,4-8c-3.4,2.8-7.8,11.5-12.8,19.1c0.9-0.2-3,8.1,2.1,0.9c0.6,0.5-2.1,5.1-4,8
		c0.7-1.7-5.5,4.5-1.4-2.6c-3.7,7-1.9,2.9-6.5,10.4c0.3-1.3-8.6,12.6-9.3,10.9c-1,2.7,2,1.2-3.6,9.6c2.3-1.4,8.8-10.7,5.5-3.7
		l2.2-4.5c4.4-5.5-0.1,2.2,5.4-5.1c-1.6,2.2-4.2,7.1-5.5,7.7c3.3-0.6-6.7,12-5.6,13.3c-1.7,1.3-3.3,3.5-6,7.8
		c-0.1-0.9-2.2,1-0.4-2.5c2-2.6,3.1-4.7,5.6-7.3c-3.1,0.3-8,10.4-13.1,17.1c0.8-0.9,1.2-1,0.2,1.1c-3.2,4.1-9.9,13.2-9,9.9
		l-14.3,21.6c-0.5-0.2,1.9-3.2,2.6-4.6l-8.2,11.9c-2.5,2.4,2.2-4.5,2.4-6.1l-5.8,8.6l0.2-1.6c-1.1,2.4-7.6,12.4-10.2,14.2
		c-3.1,4.8-4.1,7.5-5.5,10.6c-0.7,1.5-1.5,3.1-2.8,5.1c-0.3,0.5-0.6,1-1,1.6l-1.5,2.1c-1.5,2.2-3.3,4.6-5.3,7.4
		c-0.3-0.6,1.8-3.9,4.4-7.8l1.4-2.1l1.1-1.7c0.7-1.1,1.3-2.1,1.6-3c-0.5,0.6-1.2,1.5-1.9,2.6l-2.7,4.1c-3,4.4-5.8,8.5-7.3,9.6
		c-1.1,1.8-2.1,3.3-2.9,4.7c3.7,6.7,5.9,9.7,7.7,11.8l4.8,5.6c4,8.1-0.5,1.3-0.6,1.8c1.1,2.4,5,5.4,4.6,8.3c2.7,3.6,4.7,5.3,2.2-0.7
		c2.1,4.4,5.6,10.3,6.6,11.1c-3.3-2.8,1.8,5.3,0.7,6.4c2.9,6.7,9.5,21.4,14.2,26.8l-2.6-1l3.9,7.6c1.7,6.2-4.4-6.2-6.3-10
		c4.8,10.5,8.3,17.4,12.9,26.8c-1-2.9,0.2-1.5,0.1-3c2.3,2.9,3.9,7.6,5.7,10.8c0,1-0.6,0.8-2-1.8l3.3,6.3c-1.3,0,0.2,3.1-3.6-2.9
		l3.2,5.8c2.9,6.7-1,0.1-2.1-1.3l4.8,10.5c2.4,3.4-0.1-2.6,3.7,4.4c3.7,10,10,22.1,14.9,33.1l-2.7-8.2c2.9,6.7,4,4.6,5.7,6.2
		c1.4,3.1,3.1,6.6,4.7,10.1c0.8,1.7,1.6,3.4,2.3,5.1l1.5,3.5l1.5,3.5c-2.7-4.6-4-5.9-4-4.7c0,1.2,1.2,5.1,3.4,10.4
		c1.1,2.4,2.1,4.4,3,6.2c8.8,0.5,12.3,0.3,15.1,0l2.1-0.3l1.1-0.1l0.6-0.1l0.4-0.1c0.9-0.2,2.1-0.3,3.8-0.3c-6.1,1.9,9.5,1.5,8,2.7
		c17.3,1.2,34.8,1.6,52.7,3c-0.3-0.4-5.4-1.1-2.3-1.2c6.6,0.1,9.7,1.3,10.5,1.8c8.5,0.4,13.5,0,16.3-0.4c-3.7,0-4-0.4-3.3-1
		c8.5,0.4,6,1.8,14.2,1.3c2,1.4-9,0-8.3,1.2c7.5,0.6,12.2,0.5,17.8,0.2c1.2,0.9-5-0.2-1,0.8l34.5,0.7l2.3,1.2
		c5.6,0.3,9.3,0.4,11.9,0.1c3,0.6,0.6,0.7-2.3,0.6c3.7,0.3,7.9,0.4,11.7,0.5l2.7,0l1.3,0l0.6,0l1,0c2.6,0.1,4.9,0.2,6.6,0.3
		c-0.5,0.3-2.3,0.2-4.2,0c-0.9-0.1-1.9-0.1-2.8-0.2l-0.6,0l-0.3,0c-0.2,0-0.4,0.1-0.6,0.1l1.6,0.1l2.3,0.2l4.6,0.3
		c3.1,0.2,6.3,0.3,9.3,0.4c2.9-4.6,5.6-9.1,8.2-12.9l1.5-2.2c0.4-0.5,0.7-1.1,1.1-1.6c0.7-1,1.5-1.8,2.2-2.5
		c-0.3,0.8-0.8,1.5-1.3,2.2c7.9-11.5,14.1-22,22.5-34.6c8.8-10.8,1.2-4.6,9-15.8c2.4,1.5,10.6-15.3,14.3-19.8l-1.4,1.3
		c2.9-6.2,8.9-13.3,12.2-16.8c5.9-8.3,14.4-21,19.2-30l-0.6,2c4.1-7.4,7.8-11.2,11.9-18.6c0,0.3-1.4,3.1,0.6,0.5l5.8-8.2l9.1-13.2
		l-8.2-16.9l-5.7-11.5l-11.5-22.9c-7.7-15.3-15.3-30.5-22.6-45.8l-18.8-39.6l-22.4-46.8l-47-3.5c-13.8-1-27.5-1.9-41-2.8
		C420,36.5,393.7,35,369.4,34C369.4,34,332.4,43,337.5,48.2z"/>
	<path d="M235.3,211.9l0.4,1C235.6,212.5,235.5,212.2,235.3,211.9z"/>
	<path d="M316.4,373c-0.9-0.1-1.8-0.1-2.7-0.2C314.5,373,315.4,373,316.4,373z"/>
	<path d="M471.8,380.6l-3.2-0.1C470,380.5,471,380.6,471.8,380.6z"/>
	<path d="M599.7,221.1c-0.2,1.5-4.3-3.7-2.5,1.6l0.4,0.9l0.3,0.5c0.2,0.3,0.4,0.6,0.6,0.9c0.4,0.5,0.7,0.9,1.1,1.3
		c0,0.8,0.5,1.2,0.4,2.2c0,0.5-0.2,1.1-0.6,1.9c-0.1,0.1-0.1,0.2-0.2,0.4l-0.4,0.7l-1,1.6c-0.7,1.1-1.6,2.4-2.6,3.8l3.2-3.9l1.6-1.9
		l1-1c-0.5-0.1-0.7-0.6-0.6-1.3c0-0.7,0.3-1.5,0.6-2.3c-0.6-0.8-1.1-1.7-1.6-2.7c0.2-0.4,0.4-0.8,0.5-1.3c0.6,0.5,1.1,1,1.7,1.7
		c-0.3-0.7-0.6-1-0.9-1.2c-0.1-0.1-0.3-0.3-0.4-0.5c-0.1-0.1-0.1-0.2-0.2-0.4L599.7,221.1z"/>
	<path d="M601.7,224.5c0-0.1,0-0.2,0-0.2c0,0-0.1-0.1-0.1-0.1C601.6,224.2,601.7,224.3,601.7,224.5z"/>
</g>
<path fill="#FFFFFF" d="M371.8,363.2c-5.2-0.3-9.5-3.8-10.5-8.5L335,229.4c-1-5-6.4-8.3-11.9-7.4c-5.4,0.8-9,5.3-8.3,10.2L332.7,349
	c0.3,2-0.4,4-1.9,5.4c-1.6,1.5-3.9,2-6,1.5l-12.1-3c-1.1-0.3-2-1.1-2.4-2.2l-66.7-215.6c-0.4-1.3,0-2.7,1-3.5
	c42.2-35.2,88.7-51,142.1-48.2c1.2,0.1,2.3,0.8,2.8,1.9l17.7,38c1.2,2.5,3.8,4.1,6.6,4C477,124,547,146.1,590,183.3
	c21,18.2,32.6,37.8,33.8,56.7c0,0.8-0.2,1.6-0.7,2.3c-2,2.5-4.1,5-6.1,7.5c-31.9,39.1-68,83.4-100,95.2c-1.2,0.5-2.7,0.2-3.6-0.7
	c-1.3-1.2-1.3-3.2-0.2-4.5l42.2-50.9c0.9-1,1.3-2.1,1.2-3.3c-0.1-1.2-0.7-2.3-1.7-3.2c-1.2-1-2.9-1.5-4.6-1.3
	c-1.5,0.2-2.9,1-3.7,2.1l-40.2,62.2c0,0-0.1,0.1-0.1,0.1c-1.6,2.3-4.1,3.9-6.8,4.7c-1.9,0.5-3.9,1-6,1.6
	c-14.5,3.9-34.5,9.3-49.1,10.9c-2.5,0.3-5-0.8-6.4-2.8c-1.4-1.9-1.7-4.2-0.8-6.4c0-0.1,0.1-0.1,0.1-0.2l38.4-77.7
	c1.5-3.4,1.4-7-0.2-10.3c-1.8-3.7-5.4-6.5-9.7-7.6c-7.7-1.9-15.6,2-17.9,8.9l-32.7,89.2c-1.7,5.2-7,8.6-12.9,8.3L371.8,363.2z"/>
<g>
	<path fill="#010202" d="M380.7,366.4c-5.3,0-9.9-3.4-11.2-8.2l-33.8-127c-1.3-5-7-8.2-12.6-7c-5.5,1.2-8.9,5.9-7.9,10.9l24.6,118.8
		c0.4,2-0.2,4.1-1.7,5.7c-1.6,1.6-3.9,2.3-6.1,1.9l-12.5-2.4c-1.2-0.2-2.2-1.1-2.6-2.2l-80-217.5c-0.5-1.3-0.1-2.7,0.9-3.7
		c41.4-38.4,88.2-57.1,143.1-57.1c1.3,0,2.4,0.7,3,1.8l20.2,38c1.3,2.5,4.1,4,6.9,3.7c64.6-6.8,137.6,12.1,183.7,48
		c22.5,17.5,35.5,37,37.7,56.4c0.1,0.8-0.1,1.7-0.6,2.4c-1.9,2.6-3.9,5.3-5.9,8c-30.6,41.8-65.2,89.2-97.4,103
		c-1.2,0.5-2.7,0.4-3.7-0.5c-1.4-1.2-1.5-3.2-0.5-4.6l40.5-54.5c0.8-1.1,1.2-2.2,1-3.4c-0.2-1.2-0.9-2.4-1.9-3.2
		c-1.3-1-3-1.4-4.7-1.1c-1.6,0.3-2.9,1.1-3.7,2.3L517.5,341c0,0-0.1,0.1-0.1,0.1c-1.6,2.4-3.9,4.2-6.7,5.1c-1.9,0.6-3.9,1.3-6.1,2
		c-14.7,4.8-34.8,11.4-49.8,13.8c-2.5,0.4-5.1-0.5-6.7-2.5c-1.5-1.8-1.9-4.3-1.1-6.5c0-0.1,0-0.1,0.1-0.2l35.2-81.8
		c1.3-3.5,1-7.3-0.8-10.6c-2.1-3.7-5.9-6.4-10.4-7.3c-8-1.6-15.8,2.9-17.9,10.1l-28.8,93.3c-1.5,5.4-6.7,9.2-12.8,9.2L380.7,366.4z
		 M325.6,217.1c7.8,0,14.7,4.9,16.7,12.3l33.8,127c0.5,1.8,2.4,3.1,4.5,3.1l31-0.7c3,0,5.6-1.8,6.3-4.3l28.8-93.3
		c2.9-10.5,14.2-17.1,25.7-14.9c6.5,1.3,12,5.1,15,10.6c2.8,5.1,3.2,11,1.2,16.4c0,0,0,0.1-0.1,0.1l-35.1,81.5c0.1,0,0.2,0.1,0.3,0
		c14.4-2.3,34.3-8.8,48.7-13.5c2.2-0.7,4.2-1.4,6.1-2c1.3-0.4,2.3-1.2,3-2.3l37.8-65.9c0,0,0.1-0.1,0.1-0.1c1.8-2.8,4.8-4.8,8.3-5.4
		c3.5-0.6,7.2,0.2,10,2.3c2.6,1.9,4.2,4.7,4.6,7.8c0.4,3-0.4,6-2.4,8.5l-30.8,41.3c26.8-18.8,55.3-57.9,81-92.9
		c1.7-2.3,3.4-4.6,5.1-6.9c-2.4-17.1-14.5-34.5-34.9-50.4c-36.7-28.6-103.9-53.3-174.6-47c-4.1,0.4-7,4.1-6.3,8.1l8.8,56.5
		c1.1,8.8-1.4,15.5-7.3,20.1c-20.1,15.3-73.8-1.6-86-6.6c-1.7-0.7,0.5-4.4,7.4-2c15.2,5.1,55.7,15.4,71.8,3.2
		c3.9-3,6.3-7.7,5.5-13.9l-18.8-66.3l-14-35.8c-1.7-4.3-6-7.1-10.7-6.9c-45.6,2.1-81.7,18.7-117.2,49.7c-3,2.6-4,6.8-2.7,10.5
		l76.3,207.5l5.2,1c2.4,0.5,4.5-1.7,4-4.1l-23.4-113.1c-1.8-8.7,4-17,13.2-19C323,217.2,324.3,217.1,325.6,217.1z"/>
</g>
<path fill="#010202" stroke="#010202" stroke-width="0.857" stroke-miterlimit="10" d="M472.5,176.2c-3.8-0.7-6.5-1-10.1-1.4
	c-1.6-0.2-2.7-1.6-2.4-3.2c1.2-8,2.2-15.9,3.5-23.9c0.8-4.7,5.6-7.4,10.7-6.7l0,0c5.1,0.7,8.2,4.6,7,9.2c-1.9,7.9-3.6,15.9-5.5,23.8
	C475.3,175.6,473.9,176.5,472.5,176.2z"/>
<path fill="#010202" stroke="#010202" stroke-width="0.857" stroke-miterlimit="10" d="M518.1,161.5c1.9-4.3-0.5-9-5.3-11.1l0,0
	c-4.8-2.1-10.1-0.5-11.7,4.1c-2.5,7.8-4.8,15.6-7.3,23.4c-0.5,1.5,0.4,3.1,1.9,3.5c3.8,1.1,6.5,2,10.3,3.3c1.4,0.5,2.9-0.2,3.5-1.6
	C512.4,175.9,515.1,168.7,518.1,161.5z"/>
<path fill="#010202" stroke="#010202" stroke-width="0.857" stroke-miterlimit="10" d="M552.7,177.4c2.3-4,0.4-9.2-4.4-12.3l0,0
	c-4.8-3.1-10.6-2.5-12.7,2c-3.4,7.3-6.5,14.7-9.8,21.9c-0.6,1.4,0,3.1,1.4,3.7c4.2,1.8,7.1,3.1,11.2,5.1c1.3,0.6,2.9,0.1,3.6-1.1
	C545.6,190.3,549.1,183.8,552.7,177.4z"/>
<path fill="#010202" stroke="#010202" stroke-width="0.857" stroke-miterlimit="10" d="M582.4,199.2c2.4-3.9,1.2-10-2.8-14.2l0,0
	c-4-4.2-9.4-4.6-11.8-0.2c-3.8,7.1-7.4,14.4-11.2,21.5c-0.6,1.2-0.3,2.7,0.8,3.5c4,2.9,6.7,4.9,10.3,7.9c1.3,1.1,3.3,0.7,4.1-0.7
	C575,211.9,577.9,206.7,582.4,199.2z"/>
<path fill="#010202" stroke="#010202" stroke-width="0.7739" stroke-miterlimit="10" d="M463.5,215.3c-3.2-0.5-5.5-0.9-8.6-1.2
	c-1.6-0.2-2.7-1.6-2.4-3.2c1-7.1,2-14.2,3.1-21.3c0.7-4.3,5.1-6.7,9.7-6l0,0c4.6,0.6,7.4,4.1,6.3,8.3c-1.7,7.1-3.2,14.2-4.9,21.3
	C466.3,214.6,464.9,215.5,463.5,215.3z"/>
<path fill="#010202" stroke="#010202" stroke-width="0.7739" stroke-miterlimit="10" d="M504.9,202c1.7-3.9-0.4-8.2-4.8-10.1l0,0
	c-4.4-1.9-9.1-0.5-10.6,3.7c-2.2,6.9-4.3,13.9-6.5,20.8c-0.5,1.5,0.4,3.1,1.9,3.5c3.2,0.9,5.6,1.7,8.8,2.8c1.4,0.5,2.9-0.2,3.5-1.6
	C499.8,214.9,502.3,208.4,504.9,202z"/>
<path fill="#010202" stroke="#010202" stroke-width="0.7739" stroke-miterlimit="10" d="M536.1,216.4c2.1-3.6,0.3-8.3-4-11.1l0,0
	c-4.3-2.8-9.5-2.2-11.5,1.8c-3,6.5-5.8,13.1-8.7,19.6c-0.6,1.4,0,3.1,1.4,3.7c3.6,1.5,6.2,2.7,9.6,4.4c1.3,0.6,2.9,0.1,3.6-1.1
	C529.9,227.9,533,222.1,536.1,216.4z"/>
<path fill="#010202" stroke="#010202" stroke-width="0.7739" stroke-miterlimit="10" d="M563,236.1c2.1-3.5,1.1-9-2.6-12.8l0,0
	c-3.6-3.8-8.5-4.1-10.6-0.1c-3.4,6.4-6.6,12.8-10,19.2c-0.6,1.2-0.3,2.7,0.8,3.5c3.4,2.5,5.8,4.3,8.9,6.8c1.3,1.1,3.3,0.7,4.1-0.7
	C556.4,247.3,559,242.6,563,236.1z"/>
<path fill="#010202" stroke="#010202" stroke-width="0.9036" stroke-miterlimit="10" d="M295.7,179.7c5.1-2.1,7.9-3.1,13.7-4.8
	c-1.3-5-2.7-9.5-5-16.8c-1-3.3-4.8-4.3-8.1-2.7l0,0c-3.3,1.6-5.1,5.3-4.3,8.4C293.8,170.8,295.1,174.9,295.7,179.7z"/>
<path fill="#010202" d="M460.2,238.3c0,0,0.8,0.1,2.2,0.4c1.4,0.3,3.4,0.6,6,1.1c2.6,0.5,5.7,1,9.2,1.5c3.5,0.5,7.4,1.1,11.7,1.6
	c4.3,0.5,8.9,1.1,13.7,1.5c4.8,0.5,10,0.9,15.2,1.3c2.6,0.1,5.3,0.4,8,0.5c2.7,0.1,5.4,0.3,8.2,0.4c5.5,0.2,11.1,0.4,16.6,0.3
	c2.8,0,5.6,0,8.3-0.1c1.4,0,2.7-0.1,4.1-0.1c1.4-0.1,2.7-0.1,4.1-0.2c1.4-0.1,2.7-0.2,4-0.2c1.3-0.1,2.7-0.2,4-0.3
	c2.6-0.2,5.2-0.5,7.7-0.8c5-0.6,9.8-1.3,14.2-2.4c4.4-1,8.4-2.2,12-3.7c3.5-1.5,6.5-3.1,8.9-5c2.4-1.9,4.3-3.9,5.6-5.9
	c1.3-2,2.1-3.8,2.6-5.1c0.4-1.3,0.7-2,0.7-2h1.4c0,0,0,0.8-0.1,2.2c-0.1,1.4-0.3,3.5-1.1,6c-0.8,2.5-2.1,5.5-4.4,8.5
	c-1.1,1.5-2.5,2.9-3.9,4.4c-1.5,1.4-3.3,2.7-5.1,4c-3.8,2.5-8.1,4.7-13,6.5c-4.8,1.8-10,3.3-15.5,4.4c-10.9,2.3-22.8,3.3-34.6,3.3
	c-11.9-0.1-23.7-1.1-34.6-2.8c-11-1.7-21.1-4.1-29.6-6.7c-8.5-2.6-15.3-5.5-20-7.8c-2.3-1.1-4.2-2.1-5.4-2.7c-1.2-0.7-1.9-1-1.9-1
	L460.2,238.3z"/>
<g>
	<path fill="#0095CD" d="M354.6,443.9v30.6c0,8.8-7.1,15.9-15.9,15.9h-58.1c-2.1,0-3.9,1.7-3.9,3.9v16.4c0,2.1-1.7,3.9-3.9,3.9H241
		c-2.1,0-3.9-1.7-3.9-3.9v-63.5c0-2.1-1.7-3.9-3.9-3.9l0,0c-2.1,0-3.9-1.7-3.9-3.9v-7.5c0-2.1,1.7-3.9,3.9-3.9h105.4
		C347.5,428,354.6,435.1,354.6,443.9z M276.7,447.1v24.1c0,2.1,1.7,3.9,3.9,3.9h18.5c8.8,0,15.9-7.1,15.9-15.9l0,0
		c0-8.8-7.1-15.9-15.9-15.9h-18.5C278.4,443.2,276.7,445,276.7,447.1z"/>
	<path fill="#0095CD" d="M448.9,428h31.7c2.1,0,3.9,1.7,3.9,3.9v78.9c0,2.1-1.7,3.9-3.9,3.9h-93.7c-10.9,0-19.7-8.8-19.7-19.7v-47.2
		c0-10.9,8.8-19.7,19.7-19.7l0,0c10.9,0,19.7,8.8,19.7,19.7v31.8c0,10.9,8.8,19.7,19.7,19.7h14.9c2.1,0,3.9-1.7,3.9-3.9v-63.5
		C445.1,429.7,446.8,428,448.9,428z"/>
	<path fill="#0095CD" d="M562.7,475.1h47.6c2.1,0,3.9,1.7,3.9,3.9v31.8c0,2.1-1.7,3.9-3.9,3.9h-88.1c-14,0-25.3-11.3-25.3-25.3
		v-33.6c0-15.3,12.4-27.7,27.7-27.7h76.6c3.4,0,6.2,2.8,6.2,6.2v15.2c0,3.4-2.8,6.2-6.2,6.2H574c-3.4,0-6.2-2.8-6.2-6.2l0,0
		c0-3.4-2.8-6.2-6.2-6.2h0c-14,0-25.3,11.3-25.3,25.3v5.4c0,14,11.3,25.3,25.3,25.3h9.2c2.1,0,3.9-1.7,3.9-3.9v-1.1
		c0-2.1-1.7-3.9-3.9-3.9h-8.1c-2.1,0-3.9-1.7-3.9-3.9v-7.6C558.8,476.8,560.5,475.1,562.7,475.1z"/>
</g>
<g>
	<path d="M358,527.8v23.2c0,1.9-1.5,3.4-3.4,3.4h0c-3,0-4.6,3.7-2.4,5.8l0,0c2.2,2.2,0.6,5.8-2.4,5.8h-9.4c-0.9,0-1.8-0.4-2.4-1
		l-9.7-9.7c-0.6-0.6-1.5-1-2.4-1h-3.5c-1,0-1.9,0.8-1.9,1.9v7.9c0,1-0.8,1.9-1.9,1.9h-15.3c-1,0-1.9-0.8-1.9-1.9v-30.7
		c0-1-0.8-1.9-1.9-1.9l0,0c-1,0-1.9-0.8-1.9-1.9v-3.6c0-1,0.8-1.9,1.9-1.9h55.1C356.5,524.4,358,525.9,358,527.8z M322.3,547.1h13.2
		c1.9,0,3.4-1.5,3.4-3.4v-8.5c0-1.9-1.5-3.4-3.4-3.4h-13.2c-1,0-1.9,0.8-1.9,1.9v11.6C320.5,546.3,321.3,547.1,322.3,547.1z"/>
	<path d="M371.1,524.4h38c5.1,0,9.3,4.1,9.3,9.3v30.6c0,1-0.8,1.9-1.9,1.9h-52.8c-1,0-1.9-0.8-1.9-1.9v-30.6
		C361.8,528.6,366,524.4,371.1,524.4z M382.7,558.8h14.8c1,0,1.9-0.8,1.9-1.9V541c0-5.1-4.1-9.3-9.3-9.3l0,0c-5.1,0-9.3,4.1-9.3,9.3
		v15.9C380.9,557.9,381.7,558.8,382.7,558.8z"/>
	<path d="M485.2,566.1h-15.3c-1,0-1.8-0.8-1.9-1.7l-0.8-10.8c-0.2-2.2-3.2-2.4-3.7-0.3l-2.4,11.4c-0.2,0.9-0.9,1.5-1.8,1.5H450
		c-0.9,0-1.6-0.6-1.8-1.5l-2.5-11.5c-0.5-2.1-3.5-1.9-3.7,0.3l-0.8,11c-0.1,1-0.9,1.7-1.9,1.7h-15.3c-1.1,0-1.9-0.9-1.9-2l2.7-38
		c0.1-1,0.9-1.7,1.9-1.7H447c0.9,0,1.6,0.6,1.8,1.5l4,18.9c0.4,2,3.2,2,3.6,0l4-18.9c0.2-0.9,0.9-1.5,1.8-1.5h20.2
		c1,0,1.8,0.8,1.9,1.7l2.7,38C487.2,565.2,486.3,566.1,485.2,566.1z"/>
	<path d="M499.6,524.4H540c3.2,0,5.8,2.6,5.8,5.8v30.1c0,3.2-2.6,5.8-5.8,5.8h-7.3c-3.2,0-5.8-2.6-5.8-5.8l0,0
		c0-3.2-2.6-5.8-5.8-5.8h-8.7c-0.9,0-1.6,0.6-1.8,1.5l-1.8,8.7c-0.2,0.9-0.9,1.5-1.8,1.5h-15.2c-1.2,0-2.1-1.1-1.8-2.3l8.1-38
		C498,525,498.7,524.4,499.6,524.4z M514.7,547.1h6.3c3.2,0,5.8-2.6,5.8-5.8v-3.7c0-3.2-2.6-5.8-5.8-5.8h-3.8
		c-0.9,0-1.6,0.6-1.8,1.5l-2.5,11.6C512.6,546,513.5,547.1,514.7,547.1z"/>
</g>
</svg>
